<svg width="38" height="38" viewBox="0 0 38 38" fill="none" xmlns="http://www.w3.org/2000/svg">
<g clip-path="url(#clip0_1519_167562)">
<path d="M19.0002 38C29.4937 38 38.0002 29.4934 38.0002 19C38.0002 8.50659 29.4937 0 19.0002 0C8.50683 0 0.000244141 8.50659 0.000244141 19C0.000244141 29.4934 8.50683 38 19.0002 38Z" fill="#FFC200"/>
<path fill-rule="evenodd" clip-rule="evenodd" d="M32.3354 32.5316C28.7497 36.0659 23.9078 38.0322 18.8732 37.9987C13.8387 37.9651 9.02333 35.9344 5.48511 32.3527C5.93761 31.1013 6.81648 30.0494 7.96741 29.3815C8.74311 28.808 9.58423 28.3287 10.4731 27.9538C9.12155 23.3095 12.7955 21.0265 14.2011 20.3691C14.2011 22.5133 16.2087 21.0904 18.7003 21.1175C20.7515 21.1402 24.8079 23.205 24.8079 20.4811C27.0646 21.1488 29.5241 25.4493 27.8313 28.0915C28.5254 28.4309 29.1811 28.8435 29.7873 29.3225C30.9723 30.0766 31.8697 31.207 32.3354 32.5322V32.5316Z" fill="#677079"/>
<path fill-rule="evenodd" clip-rule="evenodd" d="M14.7771 23.7832L23.9512 23.8385V25.9519L23.9469 25.9845C23.9406 26.0802 23.9262 26.1753 23.9039 26.2686L23.8731 26.4783L23.8547 26.5219C23.2607 29.6418 20.6616 30.8476 19.0567 31.6876C17.3658 30.7665 14.9751 29.1069 14.7851 26.1708L14.7771 26.1345V26.0116C14.7758 25.9691 14.775 25.9267 14.7747 25.8843C14.7747 25.9064 14.7765 25.9273 14.7771 25.9494V23.7832Z" fill="#F9DCA4"/>
<path opacity="0.11" fill-rule="evenodd" clip-rule="evenodd" d="M23.9519 23.7441V26.2068C23.9501 26.435 23.9306 26.6628 23.8935 26.8881C23.8469 27.1669 23.7685 27.4394 23.6599 27.7003C20.4723 30.1076 15.3933 28.1332 14.5823 24.0215L23.9519 23.7441Z" fill="black"/>
<path fill-rule="evenodd" clip-rule="evenodd" d="M11.1321 15.5176C8.09457 16.2985 10.6771 20.0001 12.5875 19.9841C11.8171 18.6038 11.3228 17.0868 11.1321 15.5176ZM26.955 15.5176C29.9925 16.2985 27.41 20.0001 25.4989 19.9835C26.2696 18.6035 26.7641 17.0866 26.955 15.5176Z" fill="#F9DCA4"/>
<path fill-rule="evenodd" clip-rule="evenodd" d="M18.8976 6.98633C31.5169 6.98633 26.599 26.9369 18.8976 26.9369C11.6234 26.9369 6.27823 6.98633 18.8976 6.98633Z" fill="#FFE8BE"/>
<path fill-rule="evenodd" clip-rule="evenodd" d="M12.9417 13.5916C13.0494 13.7096 13.1292 13.8502 13.1754 14.0031C13.2215 14.156 13.2328 14.3174 13.2084 14.4752C13.184 14.6331 13.1245 14.7834 13.0343 14.9153C12.9441 15.0471 12.8255 15.157 12.6872 15.237C11.7956 15.9706 11.763 18.5285 11.763 18.5285C11.4187 18.1866 11.4267 16.3555 10.6802 15.2973C9.93372 14.239 9.43074 6.83457 13.6052 4.14198C13.3487 4.44371 13.1638 4.7996 13.0645 5.18297C12.9651 5.56634 12.9538 5.96723 13.0315 6.35557C13.0315 6.35557 15.9313 2.19709 20.7422 2.317C20.3608 2.52496 20.0275 2.81095 19.764 3.15633C19.5005 3.50171 19.3128 3.89873 19.213 4.32153C19.213 4.32153 23.4188 2.58632 26.9237 4.65049C26.0124 4.90235 25.1506 5.30717 24.3749 5.84768C26.077 5.89441 27.7218 6.21046 28.962 7.31357C28.6951 7.39926 28.4481 7.53758 28.2355 7.72035C28.0229 7.90312 27.8491 8.12663 27.7244 8.37769C27.5997 8.62875 27.5266 8.90226 27.5093 9.18207C27.4921 9.46187 27.5311 9.74229 27.624 10.0068C28.1504 12.1607 28.1995 14.1646 27.6898 15.2419C27.1801 16.3192 26.9396 15.6238 26.6205 17.8829C26.6049 18.0355 26.554 18.1824 26.4718 18.3119C26.3896 18.4415 26.2784 18.5501 26.1471 18.6293C26.1348 18.7929 26.3819 16.3198 25.7443 15.6613C25.1073 15.0033 25.5076 14.1948 25.7621 13.7164C27.5392 10.3794 22.2173 8.86738 19.3083 8.87107C16.7854 8.87415 10.6999 10.0209 12.9417 13.5916Z" fill="#8A5C42"/>
<path fill-rule="evenodd" clip-rule="evenodd" d="M12.1689 30.2284C12.1874 30.2518 18.5748 38.519 26.0838 30.1055C25.1769 32.597 21.265 34.5757 19.0274 34.5695C14.7539 34.5572 12.3891 31.1262 12.1689 30.2284Z" fill="#434955"/>
<path fill-rule="evenodd" clip-rule="evenodd" d="M22.3427 37.7074C22.0906 37.7516 21.8373 37.7904 21.5821 37.8254V32.3302C21.5915 32.2381 21.6365 32.1534 21.7075 32.0941C21.7785 32.0348 21.8699 32.0057 21.9621 32.0129C22.0545 32.0055 22.146 32.0346 22.2172 32.0939C22.2883 32.1532 22.3334 32.238 22.3427 32.3302V37.7074ZM16.3046 37.8094C16.0496 37.7729 15.796 37.732 15.5439 37.6865V32.3302C15.5533 32.2381 15.5983 32.1534 15.6693 32.0941C15.7403 32.0348 15.8317 32.0057 15.9239 32.0129C16.0164 32.0053 16.1081 32.0343 16.1794 32.0937C16.2507 32.153 16.2958 32.2379 16.3052 32.3302L16.3046 37.8094Z" fill="#E6E6E6"/>
</g>
<defs>
<clipPath id="clip0_1519_167562">
<rect width="38" height="38" fill="white" transform="translate(0.000244141)"/>
</clipPath>
</defs>
</svg>
